<svg width="227" height="340" viewBox="0 0 227 340" fill="none" xmlns="http://www.w3.org/2000/svg">
<g clip-path="url(#clip0_56_699)">
<path d="M187.328 110.53C187.328 151.644 154.079 184.927 113.124 184.927C72.168 184.927 38.9194 151.644 38.9194 110.53C38.9194 69.4147 72.168 36.132 113.124 36.132C154.079 36.132 187.328 69.4147 187.328 110.53Z" stroke="#0A2640" stroke-width="24.971"/>
<mask id="mask0_56_699" style="mask-type:alpha" maskUnits="userSpaceOnUse" x="-26" y="-8" width="137" height="226">
<path d="M110.357 102.519L76.5419 -7.77954L-25.8257 122.237L28.5859 217.131L110.357 102.519Z" fill="#C4C4C4"/>
</mask>
<g mask="url(#mask0_56_699)">
<path d="M187.328 110.529C187.328 151.644 154.08 184.927 113.124 184.927C72.1683 184.927 38.9197 151.644 38.9197 110.529C38.9197 69.4144 72.1683 36.1317 113.124 36.1317C154.08 36.1317 187.328 69.4144 187.328 110.529Z" stroke="#0DBBFC" stroke-width="24.971"/>
</g>
<mask id="mask1_56_699" style="mask-type:alpha" maskUnits="userSpaceOnUse" x="65" y="-17" width="169" height="157">
<path d="M121.803 112.184L233.668 139.575L174.552 -15.1029L65.3615 -16.8807L121.803 112.184Z" fill="#C4C4C4"/>
</mask>
<g mask="url(#mask1_56_699)">
<path d="M75.0876 174.371C39.863 153.33 28.3026 107.674 49.2714 72.3958C70.2402 37.1172 115.795 25.5795 151.02 46.6211C186.244 67.6626 197.805 113.318 176.836 148.597C155.867 183.875 110.312 195.413 75.0876 174.371Z" stroke="#69E6A6" stroke-width="24.971"/>
</g>
</g>
<g clip-path="url(#clip1_56_699)">
<path d="M40.3688 237.251C39.8739 237.251 39.4182 237.163 39.0019 236.987C38.5856 236.811 38.2271 236.562 37.9264 236.238C37.6257 235.909 37.406 235.518 37.2672 235.065L38.2386 234.774C38.4052 235.269 38.6781 235.643 39.0574 235.898C39.4413 236.152 39.8739 236.275 40.355 236.265C40.799 236.256 41.1807 236.157 41.4999 235.967C41.8237 235.777 42.0711 235.514 42.2423 235.176C42.4135 234.838 42.499 234.448 42.499 234.003C42.499 233.323 42.3001 232.778 41.9023 232.366C41.5091 231.95 40.9887 231.741 40.3411 231.741C40.1607 231.741 39.971 231.767 39.7721 231.818C39.5732 231.864 39.3882 231.931 39.217 232.019L38.7035 231.207L42.5892 227.62L42.7558 228.036H37.6627V227.058H43.4358V228.05L40.0496 231.283L40.0358 230.881C40.7296 230.793 41.3403 230.872 41.8676 231.117C42.395 231.362 42.8067 231.737 43.1027 232.241C43.4034 232.741 43.5537 233.328 43.5537 234.003C43.5537 234.642 43.415 235.206 43.1374 235.696C42.8645 236.182 42.4875 236.564 42.0064 236.841C41.5253 237.114 40.9794 237.251 40.3688 237.251ZM48.3031 237.258C47.785 237.258 47.3062 237.151 46.8668 236.939C46.4273 236.726 46.0526 236.432 45.7427 236.057C45.4328 235.683 45.2107 235.252 45.0766 234.767L46.0549 234.503C46.1428 234.864 46.3024 235.176 46.5337 235.44C46.765 235.699 47.0356 235.9 47.3456 236.043C47.6601 236.187 47.9885 236.259 48.3309 236.259C48.7749 236.259 49.1728 236.152 49.5243 235.939C49.8805 235.722 50.1627 235.435 50.3709 235.079C50.579 234.723 50.6831 234.332 50.6831 233.906C50.6831 233.467 50.5744 233.071 50.357 232.72C50.1396 232.364 49.8528 232.081 49.4966 231.873C49.1404 231.665 48.7518 231.561 48.3309 231.561C47.859 231.561 47.4519 231.665 47.1096 231.873C46.7673 232.077 46.4944 232.334 46.2909 232.643L45.3611 232.255L45.6664 227.058H51.0023V228.036H46.1174L46.6239 227.557L46.3533 231.991L46.0966 231.651C46.3834 231.323 46.7303 231.066 47.1374 230.881C47.5445 230.696 47.9724 230.603 48.4211 230.603C49.0363 230.603 49.5914 230.751 50.0864 231.048C50.5813 231.339 50.9745 231.734 51.266 232.234C51.5574 232.734 51.7031 233.291 51.7031 233.906C51.7031 234.517 51.5481 235.077 51.2382 235.585C50.9283 236.09 50.5166 236.494 50.0031 236.8C49.4896 237.105 48.923 237.258 48.3031 237.258ZM54.335 237.05L53.6411 236.356L62.9599 227.058L63.6537 227.745L54.335 237.05ZM61.5721 237.258C61.1141 237.258 60.6955 237.147 60.3162 236.925C59.9415 236.698 59.6408 236.397 59.4141 236.023C59.1875 235.643 59.0741 235.222 59.0741 234.76C59.0741 234.306 59.1898 233.89 59.4211 233.511C59.6524 233.131 59.9577 232.828 60.337 232.602C60.7163 232.375 61.128 232.262 61.5721 232.262C62.0301 232.262 62.4487 232.375 62.828 232.602C63.2073 232.824 63.508 233.125 63.7301 233.504C63.9567 233.879 64.0701 234.297 64.0701 234.76C64.0701 235.222 63.9567 235.643 63.7301 236.023C63.508 236.397 63.2073 236.698 62.828 236.925C62.4487 237.147 62.0301 237.258 61.5721 237.258ZM61.5721 236.335C61.8543 236.335 62.1156 236.263 62.3562 236.12C62.5967 235.976 62.7887 235.787 62.9321 235.551C63.0755 235.31 63.1472 235.047 63.1472 234.76C63.1472 234.473 63.0755 234.212 62.9321 233.976C62.7887 233.735 62.5967 233.543 62.3562 233.4C62.1156 233.256 61.8543 233.185 61.5721 233.185C61.2853 233.185 61.0216 233.256 60.7811 233.4C60.5452 233.543 60.3532 233.735 60.2052 233.976C60.0618 234.212 59.9901 234.473 59.9901 234.76C59.9901 235.047 60.0618 235.31 60.2052 235.551C60.3532 235.787 60.5452 235.976 60.7811 236.12C61.0216 236.263 61.2853 236.335 61.5721 236.335ZM55.7227 231.845C55.2648 231.845 54.8461 231.734 54.4668 231.512C54.0875 231.286 53.7845 230.985 53.5578 230.61C53.3358 230.231 53.2248 229.81 53.2248 229.348C53.2248 228.894 53.3404 228.478 53.5717 228.099C53.803 227.719 54.1083 227.416 54.4876 227.19C54.8669 226.963 55.2786 226.85 55.7227 226.85C56.1807 226.85 56.597 226.963 56.9717 227.19C57.351 227.412 57.654 227.712 57.8807 228.092C58.1073 228.466 58.2207 228.885 58.2207 229.348C58.2207 229.81 58.1073 230.231 57.8807 230.61C57.654 230.985 57.351 231.286 56.9717 231.512C56.597 231.734 56.1807 231.845 55.7227 231.845ZM55.7227 230.923C56.0095 230.923 56.2709 230.851 56.5068 230.708C56.7473 230.564 56.9393 230.374 57.0827 230.139C57.2261 229.898 57.2978 229.634 57.2978 229.348C57.2978 229.061 57.2261 228.799 57.0827 228.563C56.9393 228.323 56.7473 228.131 56.5068 227.988C56.2709 227.844 56.0095 227.772 55.7227 227.772C55.4359 227.772 55.1722 227.844 54.9317 227.988C54.6958 228.131 54.5061 228.323 54.3627 228.563C54.2193 228.799 54.1476 229.061 54.1476 229.348C54.1476 229.634 54.2193 229.898 54.3627 230.139C54.5061 230.374 54.6958 230.564 54.9317 230.708C55.1722 230.851 55.4359 230.923 55.7227 230.923ZM68.5117 233.115V232.241H72.675V233.115H68.5117ZM79.3406 237.05L82.7822 227.058H84.1353L87.5769 237.05H86.5153L83.2471 227.627H83.6495L80.4022 237.05H79.3406ZM80.874 234.628V233.67H86.0365V234.628H80.874ZM91.8066 240.588C91.4227 240.588 91.0434 240.531 90.6687 240.415C90.2986 240.304 89.9563 240.126 89.6417 239.881C89.3272 239.64 89.0635 239.325 88.8507 238.937L89.7736 238.423C89.9817 238.84 90.2732 239.138 90.6478 239.319C91.0272 239.504 91.4134 239.596 91.8066 239.596C92.3478 239.596 92.785 239.494 93.1181 239.291C93.4557 239.092 93.7009 238.796 93.8536 238.403C94.0062 238.009 94.0802 237.519 94.0756 236.932V234.933H94.1936V229.556H95.1025V236.945C95.1025 237.158 95.0956 237.362 95.0817 237.556C95.0725 237.755 95.0517 237.949 95.0193 238.139C94.9314 238.699 94.7487 239.159 94.4711 239.52C94.1982 239.881 93.8374 240.149 93.3887 240.325C92.9446 240.5 92.4172 240.588 91.8066 240.588ZM91.7372 237.258C91.0387 237.258 90.442 237.084 89.947 236.737C89.4521 236.386 89.0727 235.912 88.8091 235.315C88.5454 234.718 88.4136 234.045 88.4136 233.296C88.4136 232.551 88.5431 231.88 88.8021 231.283C89.0658 230.687 89.4428 230.215 89.9332 229.868C90.4235 229.521 91.011 229.348 91.6956 229.348C92.3987 229.348 92.9908 229.519 93.4719 229.861C93.953 230.203 94.3161 230.673 94.5613 231.27C94.8111 231.862 94.936 232.537 94.936 233.296C94.936 234.04 94.8134 234.714 94.5683 235.315C94.3231 235.912 93.9623 236.386 93.4858 236.737C93.0093 237.084 92.4265 237.258 91.7372 237.258ZM91.8413 236.307C92.3733 236.307 92.8127 236.178 93.1597 235.919C93.5066 235.659 93.7657 235.303 93.9368 234.85C94.108 234.392 94.1936 233.874 94.1936 233.296C94.1936 232.708 94.108 232.19 93.9368 231.741C93.7657 231.288 93.5066 230.934 93.1597 230.68C92.8174 230.425 92.3849 230.298 91.8621 230.298C91.3255 230.298 90.8815 230.43 90.5299 230.694C90.1783 230.957 89.917 231.316 89.7458 231.769C89.5793 232.222 89.496 232.731 89.496 233.296C89.496 233.865 89.5816 234.378 89.7527 234.836C89.9285 235.289 90.1899 235.648 90.5368 235.912C90.8838 236.175 91.3186 236.307 91.8413 236.307ZM97.1814 228.133V226.988H98.2014V228.133H97.1814ZM97.1814 237.05V229.556H98.2014V237.05H97.1814ZM100.42 237.05V226.85H101.44V237.05H100.42ZM106.692 237.258C105.961 237.258 105.327 237.096 104.79 236.772C104.258 236.448 103.844 235.993 103.548 235.405C103.252 234.818 103.104 234.128 103.104 233.337C103.104 232.519 103.25 231.811 103.541 231.214C103.833 230.617 104.242 230.157 104.77 229.833C105.302 229.509 105.928 229.348 106.65 229.348C107.39 229.348 108.022 229.519 108.544 229.861C109.067 230.199 109.462 230.684 109.731 231.318C109.999 231.952 110.122 232.708 110.099 233.587H109.058V233.226C109.039 232.255 108.829 231.522 108.426 231.027C108.028 230.532 107.446 230.284 106.678 230.284C105.873 230.284 105.255 230.546 104.825 231.068C104.399 231.591 104.187 232.336 104.187 233.303C104.187 234.246 104.399 234.979 104.825 235.502C105.255 236.02 105.864 236.279 106.65 236.279C107.187 236.279 107.654 236.157 108.052 235.912C108.454 235.662 108.771 235.303 109.002 234.836L109.953 235.204C109.657 235.856 109.22 236.363 108.641 236.723C108.068 237.08 107.418 237.258 106.692 237.258ZM103.826 233.587V232.734H109.55V233.587H103.826ZM114.417 237.05V227.058H117.449C117.555 227.058 117.736 227.06 117.99 227.065C118.249 227.069 118.497 227.088 118.733 227.12C119.491 227.227 120.125 227.509 120.634 227.967C121.143 228.425 121.524 229.008 121.779 229.715C122.033 230.423 122.16 231.202 122.16 232.054C122.16 232.905 122.033 233.684 121.779 234.392C121.524 235.1 121.143 235.683 120.634 236.141C120.125 236.599 119.491 236.881 118.733 236.987C118.501 237.015 118.254 237.033 117.99 237.043C117.726 237.047 117.546 237.05 117.449 237.05H114.417ZM115.471 236.071H117.449C117.639 236.071 117.842 236.067 118.059 236.057C118.282 236.043 118.471 236.02 118.628 235.988C119.211 235.886 119.681 235.65 120.037 235.28C120.398 234.91 120.662 234.448 120.828 233.892C120.995 233.333 121.078 232.72 121.078 232.054C121.078 231.383 120.995 230.768 120.828 230.208C120.662 229.648 120.398 229.186 120.037 228.82C119.676 228.455 119.207 228.221 118.628 228.119C118.471 228.087 118.279 228.066 118.053 228.057C117.83 228.043 117.629 228.036 117.449 228.036H115.471V236.071ZM126.912 237.258C126.181 237.258 125.547 237.096 125.01 236.772C124.478 236.448 124.064 235.993 123.768 235.405C123.472 234.818 123.324 234.128 123.324 233.337C123.324 232.519 123.47 231.811 123.761 231.214C124.053 230.617 124.462 230.157 124.99 229.833C125.522 229.509 126.148 229.348 126.87 229.348C127.61 229.348 128.242 229.519 128.764 229.861C129.287 230.199 129.683 230.684 129.951 231.318C130.219 231.952 130.342 232.708 130.319 233.587H129.278V233.226C129.259 232.255 129.049 231.522 128.646 231.027C128.248 230.532 127.666 230.284 126.898 230.284C126.093 230.284 125.475 230.546 125.045 231.068C124.62 231.591 124.407 232.336 124.407 233.303C124.407 234.246 124.62 234.979 125.045 235.502C125.475 236.02 126.084 236.279 126.87 236.279C127.407 236.279 127.874 236.157 128.272 235.912C128.674 235.662 128.991 235.303 129.222 234.836L130.173 235.204C129.877 235.856 129.44 236.363 128.861 236.723C128.288 237.08 127.638 237.258 126.912 237.258ZM124.046 233.587V232.734H129.77V233.587H124.046ZM133.614 237.05L130.894 229.556H131.927L134.141 235.717L136.34 229.556H137.388L134.668 237.05H133.614ZM141.535 237.258C140.804 237.258 140.17 237.096 139.633 236.772C139.101 236.448 138.687 235.993 138.391 235.405C138.095 234.818 137.947 234.128 137.947 233.337C137.947 232.519 138.093 231.811 138.384 231.214C138.676 230.617 139.085 230.157 139.613 229.833C140.144 229.509 140.771 229.348 141.493 229.348C142.233 229.348 142.864 229.519 143.387 229.861C143.91 230.199 144.305 230.684 144.574 231.318C144.842 231.952 144.965 232.708 144.941 233.587H143.901V233.226C143.882 232.255 143.672 231.522 143.269 231.027C142.871 230.532 142.289 230.284 141.521 230.284C140.716 230.284 140.098 230.546 139.668 231.068C139.242 231.591 139.03 232.336 139.03 233.303C139.03 234.246 139.242 234.979 139.668 235.502C140.098 236.02 140.707 236.279 141.493 236.279C142.03 236.279 142.497 236.157 142.895 235.912C143.297 235.662 143.614 235.303 143.845 234.836L144.796 235.204C144.5 235.856 144.063 236.363 143.484 236.723C142.911 237.08 142.261 237.258 141.535 237.258ZM138.669 233.587V232.734H144.393V233.587H138.669ZM146.62 237.05V226.85H147.64V237.05H146.62ZM152.85 237.258C152.105 237.258 151.469 237.089 150.942 236.751C150.414 236.414 150.009 235.946 149.727 235.35C149.445 234.753 149.304 234.068 149.304 233.296C149.304 232.509 149.447 231.82 149.734 231.228C150.021 230.636 150.428 230.176 150.955 229.847C151.487 229.514 152.119 229.348 152.85 229.348C153.599 229.348 154.237 229.516 154.765 229.854C155.297 230.187 155.702 230.652 155.979 231.249C156.261 231.841 156.402 232.523 156.402 233.296C156.402 234.082 156.261 234.774 155.979 235.37C155.697 235.962 155.29 236.425 154.758 236.758C154.226 237.091 153.59 237.258 152.85 237.258ZM152.85 236.279C153.682 236.279 154.302 236.004 154.709 235.454C155.116 234.899 155.32 234.179 155.32 233.296C155.32 232.389 155.114 231.667 154.702 231.131C154.295 230.594 153.678 230.326 152.85 230.326C152.29 230.326 151.827 230.453 151.462 230.708C151.101 230.957 150.831 231.307 150.65 231.755C150.474 232.199 150.386 232.713 150.386 233.296C150.386 234.198 150.595 234.922 151.011 235.468C151.427 236.009 152.04 236.279 152.85 236.279ZM161.298 237.258C160.609 237.258 160.026 237.084 159.55 236.737C159.073 236.386 158.712 235.912 158.467 235.315C158.222 234.714 158.1 234.04 158.1 233.296C158.1 232.537 158.222 231.862 158.467 231.27C158.717 230.673 159.083 230.203 159.564 229.861C160.045 229.519 160.637 229.348 161.34 229.348C162.025 229.348 162.612 229.521 163.102 229.868C163.593 230.215 163.967 230.687 164.227 231.283C164.49 231.88 164.622 232.551 164.622 233.296C164.622 234.045 164.49 234.718 164.227 235.315C163.963 235.912 163.584 236.386 163.089 236.737C162.594 237.084 161.997 237.258 161.298 237.258ZM157.926 240.38V229.556H158.842V235.197H158.953V240.38H157.926ZM161.194 236.307C161.717 236.307 162.152 236.175 162.499 235.912C162.846 235.648 163.105 235.289 163.276 234.836C163.452 234.378 163.54 233.865 163.54 233.296C163.54 232.731 163.454 232.222 163.283 231.769C163.112 231.316 162.85 230.957 162.499 230.694C162.152 230.43 161.71 230.298 161.173 230.298C160.651 230.298 160.216 230.425 159.869 230.68C159.527 230.934 159.27 231.288 159.099 231.741C158.928 232.19 158.842 232.708 158.842 233.296C158.842 233.874 158.928 234.392 159.099 234.85C159.27 235.303 159.529 235.659 159.876 235.919C160.223 236.178 160.662 236.307 161.194 236.307ZM175.083 237.05L175.09 232.13C175.09 231.552 174.928 231.098 174.604 230.77C174.285 230.437 173.878 230.27 173.383 230.27C173.101 230.27 172.825 230.335 172.557 230.465C172.289 230.594 172.067 230.802 171.891 231.089C171.72 231.376 171.634 231.751 171.634 232.213L171.031 232.04C171.017 231.503 171.121 231.034 171.343 230.631C171.57 230.229 171.879 229.916 172.273 229.694C172.67 229.468 173.119 229.354 173.619 229.354C174.373 229.354 174.976 229.588 175.43 230.055C175.883 230.518 176.11 231.145 176.11 231.936L176.103 237.05H175.083ZM166.139 237.05V229.556H167.055V231.401H167.166V237.05H166.139ZM170.621 237.05L170.628 232.199C170.628 231.603 170.469 231.133 170.149 230.791C169.835 230.444 169.419 230.27 168.9 230.27C168.382 230.27 167.964 230.448 167.645 230.805C167.325 231.156 167.166 231.626 167.166 232.213L166.555 231.88C166.555 231.399 166.668 230.969 166.895 230.59C167.122 230.206 167.432 229.905 167.825 229.688C168.218 229.465 168.665 229.354 169.164 229.354C169.641 229.354 170.064 229.456 170.434 229.66C170.809 229.863 171.102 230.159 171.315 230.548C171.528 230.936 171.634 231.408 171.634 231.963L171.627 237.05H170.621ZM181.026 237.258C180.295 237.258 179.661 237.096 179.125 236.772C178.593 236.448 178.179 235.993 177.883 235.405C177.587 234.818 177.439 234.128 177.439 233.337C177.439 232.519 177.584 231.811 177.876 231.214C178.167 230.617 178.577 230.157 179.104 229.833C179.636 229.509 180.263 229.348 180.984 229.348C181.724 229.348 182.356 229.519 182.879 229.861C183.401 230.199 183.797 230.684 184.065 231.318C184.333 231.952 184.456 232.708 184.433 233.587H183.392V233.226C183.374 232.255 183.163 231.522 182.761 231.027C182.363 230.532 181.78 230.284 181.012 230.284C180.207 230.284 179.59 230.546 179.159 231.068C178.734 231.591 178.521 232.336 178.521 233.303C178.521 234.246 178.734 234.979 179.159 235.502C179.59 236.02 180.198 236.279 180.984 236.279C181.521 236.279 181.988 236.157 182.386 235.912C182.788 235.662 183.105 235.303 183.337 234.836L184.287 235.204C183.991 235.856 183.554 236.363 182.976 236.723C182.402 237.08 181.752 237.258 181.026 237.258ZM178.16 233.587V232.734H183.885V233.587H178.16ZM191.182 237.05V233.226C191.182 232.81 191.142 232.428 191.064 232.081C190.985 231.73 190.858 231.425 190.682 231.165C190.511 230.902 190.287 230.698 190.009 230.555C189.736 230.411 189.403 230.34 189.01 230.34C188.649 230.34 188.33 230.402 188.052 230.527C187.779 230.652 187.548 230.832 187.358 231.068C187.173 231.3 187.032 231.582 186.935 231.915C186.838 232.248 186.789 232.627 186.789 233.053L186.068 232.893C186.068 232.125 186.202 231.48 186.47 230.957C186.739 230.435 187.109 230.039 187.58 229.771C188.052 229.502 188.594 229.368 189.204 229.368C189.653 229.368 190.044 229.438 190.377 229.576C190.714 229.715 190.999 229.903 191.23 230.139C191.466 230.374 191.656 230.645 191.799 230.95C191.943 231.251 192.047 231.573 192.111 231.915C192.176 232.253 192.209 232.59 192.209 232.928V237.05H191.182ZM185.763 237.05V229.556H186.685V231.401H186.789V237.05H185.763ZM198.089 237.05C197.668 237.137 197.252 237.172 196.84 237.154C196.433 237.135 196.068 237.047 195.744 236.89C195.425 236.733 195.182 236.488 195.015 236.154C194.881 235.877 194.807 235.597 194.793 235.315C194.784 235.028 194.779 234.702 194.779 234.336V227.474H195.793V234.295C195.793 234.609 195.795 234.873 195.799 235.086C195.809 235.294 195.857 235.479 195.945 235.641C196.112 235.951 196.375 236.136 196.736 236.196C197.102 236.256 197.553 236.242 198.089 236.154V237.05ZM193.177 230.43V229.556H198.089V230.43H193.177Z" fill="black"/>
<ellipse cx="26.2751" cy="232.945" rx="2.485" ry="2.47813" fill="#0DBBFC"/>
<path d="M40.3688 272.936C39.8739 272.936 39.4182 272.848 39.0019 272.672C38.5856 272.497 38.2271 272.247 37.9264 271.923C37.6257 271.595 37.406 271.204 37.2672 270.75L38.2386 270.459C38.4052 270.954 38.6781 271.329 39.0574 271.583C39.4413 271.837 39.8739 271.96 40.355 271.951C40.799 271.942 41.1807 271.842 41.4999 271.652C41.8237 271.463 42.0711 271.199 42.2423 270.861C42.4135 270.524 42.499 270.133 42.499 269.689C42.499 269.009 42.3001 268.463 41.9023 268.051C41.5091 267.635 40.9887 267.427 40.3411 267.427C40.1607 267.427 39.971 267.452 39.7721 267.503C39.5732 267.549 39.3882 267.616 39.217 267.704L38.7035 266.892L42.5892 263.305L42.7558 263.721H37.6627V262.743H43.4358V263.735L40.0496 266.969L40.0358 266.566C40.7296 266.478 41.3403 266.557 41.8676 266.802C42.395 267.047 42.8067 267.422 43.1027 267.926C43.4034 268.426 43.5537 269.013 43.5537 269.689C43.5537 270.327 43.415 270.891 43.1374 271.382C42.8645 271.868 42.4875 272.249 42.0064 272.527C41.5253 272.8 40.9794 272.936 40.3688 272.936ZM48.6153 272.943C48.0001 272.943 47.445 272.8 46.95 272.513C46.4597 272.226 46.0711 271.837 45.7843 271.347C45.4975 270.852 45.3541 270.297 45.3541 269.682V265.796C45.3541 265.181 45.4975 264.628 45.7843 264.138C46.0711 263.643 46.4597 263.252 46.95 262.965C47.445 262.678 48.0001 262.535 48.6153 262.535C49.2306 262.535 49.7834 262.678 50.2737 262.965C50.7687 263.252 51.1596 263.643 51.4464 264.138C51.7332 264.628 51.8766 265.181 51.8766 265.796V269.682C51.8766 270.297 51.7332 270.852 51.4464 271.347C51.1596 271.837 50.7687 272.226 50.2737 272.513C49.7834 272.8 49.2306 272.943 48.6153 272.943ZM48.6153 271.958C49.027 271.958 49.4017 271.858 49.7394 271.659C50.0771 271.456 50.3454 271.185 50.5443 270.848C50.7432 270.51 50.8427 270.137 50.8427 269.73V265.748C50.8427 265.336 50.7432 264.961 50.5443 264.623C50.3454 264.286 50.0771 264.017 49.7394 263.819C49.4017 263.615 49.027 263.513 48.6153 263.513C48.2036 263.513 47.829 263.615 47.4913 263.819C47.1536 264.017 46.8853 264.286 46.6864 264.623C46.4875 264.961 46.388 265.336 46.388 265.748V269.73C46.388 270.137 46.4875 270.51 46.6864 270.848C46.8853 271.185 47.1536 271.456 47.4913 271.659C47.829 271.858 48.2036 271.958 48.6153 271.958ZM54.7957 272.735L54.1019 272.041L63.4206 262.743L64.1145 263.43L54.7957 272.735ZM62.0329 272.943C61.5749 272.943 61.1563 272.832 60.777 272.61C60.4023 272.383 60.1016 272.083 59.8749 271.708C59.6483 271.329 59.5349 270.908 59.5349 270.445C59.5349 269.992 59.6506 269.575 59.8819 269.196C60.1132 268.817 60.4185 268.514 60.7978 268.287C61.1771 268.06 61.5888 267.947 62.0329 267.947C62.4908 267.947 62.9095 268.06 63.2888 268.287C63.6681 268.509 63.9688 268.81 64.1908 269.189C64.4175 269.564 64.5308 269.982 64.5308 270.445C64.5308 270.908 64.4175 271.329 64.1908 271.708C63.9688 272.083 63.6681 272.383 63.2888 272.61C62.9095 272.832 62.4908 272.943 62.0329 272.943ZM62.0329 272.02C62.3151 272.02 62.5764 271.948 62.817 271.805C63.0575 271.662 63.2495 271.472 63.3929 271.236C63.5363 270.996 63.608 270.732 63.608 270.445C63.608 270.158 63.5363 269.897 63.3929 269.661C63.2495 269.42 63.0575 269.228 62.817 269.085C62.5764 268.942 62.3151 268.87 62.0329 268.87C61.7461 268.87 61.4824 268.942 61.2419 269.085C61.0059 269.228 60.814 269.42 60.6659 269.661C60.5225 269.897 60.4508 270.158 60.4508 270.445C60.4508 270.732 60.5225 270.996 60.6659 271.236C60.814 271.472 61.0059 271.662 61.2419 271.805C61.4824 271.948 61.7461 272.02 62.0329 272.02ZM56.1835 267.531C55.7255 267.531 55.3069 267.42 54.9276 267.198C54.5483 266.971 54.2453 266.67 54.0186 266.296C53.7966 265.916 53.6855 265.495 53.6855 265.033C53.6855 264.579 53.8012 264.163 54.0325 263.784C54.2638 263.405 54.5691 263.102 54.9484 262.875C55.3277 262.648 55.7394 262.535 56.1835 262.535C56.6415 262.535 57.0578 262.648 57.4325 262.875C57.8118 263.097 58.1148 263.398 58.3415 263.777C58.5681 264.152 58.6815 264.57 58.6815 265.033C58.6815 265.495 58.5681 265.916 58.3415 266.296C58.1148 266.67 57.8118 266.971 57.4325 267.198C57.0578 267.42 56.6415 267.531 56.1835 267.531ZM56.1835 266.608C56.4703 266.608 56.7317 266.536 56.9676 266.393C57.2081 266.249 57.4001 266.06 57.5435 265.824C57.6869 265.583 57.7586 265.32 57.7586 265.033C57.7586 264.746 57.6869 264.485 57.5435 264.249C57.4001 264.008 57.2081 263.816 56.9676 263.673C56.7317 263.529 56.4703 263.458 56.1835 263.458C55.8967 263.458 55.633 263.529 55.3925 263.673C55.1566 263.816 54.9669 264.008 54.8235 264.249C54.6801 264.485 54.6084 264.746 54.6084 265.033C54.6084 265.32 54.6801 265.583 54.8235 265.824C54.9669 266.06 55.1566 266.249 55.3925 266.393C55.633 266.536 55.8967 266.608 56.1835 266.608ZM68.9725 268.801V267.926H73.1358V268.801H68.9725ZM80.634 272.735V262.743H81.654V272.735H80.634ZM89.1465 272.735V268.912C89.1465 268.495 89.1071 268.114 89.0285 267.767C88.9499 267.415 88.8227 267.11 88.6469 266.851C88.4757 266.587 88.2514 266.384 87.9738 266.24C87.7009 266.097 87.3678 266.025 86.9746 266.025C86.6138 266.025 86.2946 266.088 86.0171 266.212C85.7442 266.337 85.5129 266.518 85.3232 266.754C85.1382 266.985 84.9971 267.267 84.8999 267.6C84.8028 267.933 84.7542 268.313 84.7542 268.738L84.0326 268.579C84.0326 267.811 84.1667 267.165 84.435 266.643C84.7033 266.12 85.0734 265.724 85.5452 265.456C86.0171 265.188 86.5583 265.054 87.1689 265.054C87.6176 265.054 88.0085 265.123 88.3416 265.262C88.6793 265.401 88.9637 265.588 89.195 265.824C89.431 266.06 89.6206 266.33 89.764 266.636C89.9074 266.936 90.0115 267.258 90.0763 267.6C90.141 267.938 90.1734 268.276 90.1734 268.613V272.735H89.1465ZM83.7273 272.735V265.241H84.6501V267.087H84.7542V272.735H83.7273ZM94.0001 272.735L91.2801 265.241H92.314L94.5275 271.403L96.7271 265.241H97.7748L95.0548 272.735H94.0001ZM101.921 272.943C101.19 272.943 100.557 272.781 100.02 272.457C99.488 272.134 99.074 271.678 98.7779 271.09C98.4819 270.503 98.3338 269.814 98.3338 269.023C98.3338 268.204 98.4796 267.496 98.771 266.899C99.0624 266.303 99.4718 265.842 99.9991 265.519C100.531 265.195 101.158 265.033 101.88 265.033C102.62 265.033 103.251 265.204 103.774 265.546C104.297 265.884 104.692 266.37 104.96 267.003C105.229 267.637 105.351 268.394 105.328 269.272H104.287V268.912C104.269 267.94 104.058 267.207 103.656 266.712C103.258 266.217 102.675 265.97 101.907 265.97C101.102 265.97 100.485 266.231 100.055 266.754C99.6291 267.276 99.4163 268.021 99.4163 268.988C99.4163 269.932 99.6291 270.665 100.055 271.188C100.485 271.706 101.093 271.965 101.88 271.965C102.416 271.965 102.883 271.842 103.281 271.597C103.684 271.347 104.001 270.989 104.232 270.521L105.182 270.889C104.886 271.541 104.449 272.048 103.871 272.409C103.297 272.765 102.647 272.943 101.921 272.943ZM99.0555 269.272V268.419H104.78V269.272H99.0555ZM109.664 272.936C108.785 272.936 108.061 272.746 107.492 272.367C106.928 271.988 106.581 271.46 106.452 270.785L107.492 270.612C107.603 271.037 107.856 271.377 108.249 271.632C108.647 271.881 109.137 272.006 109.72 272.006C110.289 272.006 110.738 271.888 111.066 271.652C111.394 271.412 111.559 271.086 111.559 270.674C111.559 270.443 111.505 270.255 111.399 270.112C111.297 269.964 111.087 269.828 110.768 269.703C110.448 269.578 109.972 269.43 109.338 269.259C108.658 269.074 108.126 268.888 107.742 268.703C107.358 268.518 107.085 268.306 106.923 268.065C106.762 267.82 106.681 267.522 106.681 267.17C106.681 266.744 106.801 266.372 107.041 266.053C107.282 265.729 107.615 265.479 108.041 265.303C108.466 265.123 108.961 265.033 109.526 265.033C110.09 265.033 110.594 265.125 111.038 265.31C111.487 265.491 111.848 265.745 112.121 266.074C112.394 266.402 112.555 266.784 112.606 267.219L111.566 267.406C111.496 266.966 111.276 266.619 110.906 266.365C110.541 266.106 110.076 265.972 109.512 265.963C108.98 265.949 108.547 266.051 108.214 266.268C107.881 266.481 107.715 266.765 107.715 267.121C107.715 267.32 107.775 267.491 107.895 267.635C108.015 267.774 108.233 267.905 108.547 268.03C108.866 268.155 109.32 268.292 109.907 268.44C110.596 268.616 111.138 268.801 111.531 268.995C111.924 269.189 112.204 269.418 112.37 269.682C112.537 269.945 112.62 270.272 112.62 270.66C112.62 271.368 112.357 271.925 111.829 272.332C111.306 272.735 110.585 272.936 109.664 272.936ZM118.239 272.735C117.818 272.823 117.402 272.857 116.99 272.839C116.583 272.82 116.218 272.733 115.894 272.575C115.575 272.418 115.332 272.173 115.165 271.84C115.031 271.562 114.957 271.282 114.943 271C114.934 270.713 114.929 270.387 114.929 270.022V263.159H115.942V269.98C115.942 270.295 115.945 270.558 115.949 270.771C115.959 270.979 116.007 271.164 116.095 271.326C116.262 271.636 116.525 271.821 116.886 271.881C117.252 271.942 117.703 271.928 118.239 271.84V272.735ZM113.326 266.115V265.241H118.239V266.115H113.326ZM122.574 272.943C121.829 272.943 121.193 272.774 120.666 272.436C120.138 272.099 119.734 271.632 119.451 271.035C119.169 270.438 119.028 269.754 119.028 268.981C119.028 268.195 119.172 267.505 119.458 266.913C119.745 266.321 120.152 265.861 120.68 265.532C121.212 265.199 121.843 265.033 122.574 265.033C123.323 265.033 123.962 265.202 124.489 265.539C125.021 265.872 125.426 266.337 125.703 266.934C125.985 267.526 126.127 268.208 126.127 268.981C126.127 269.767 125.985 270.459 125.703 271.056C125.421 271.648 125.014 272.11 124.482 272.443C123.95 272.776 123.314 272.943 122.574 272.943ZM122.574 271.965C123.407 271.965 124.026 271.689 124.433 271.139C124.841 270.584 125.044 269.865 125.044 268.981C125.044 268.074 124.838 267.353 124.427 266.816C124.019 266.279 123.402 266.011 122.574 266.011C122.014 266.011 121.552 266.138 121.186 266.393C120.825 266.643 120.555 266.992 120.374 267.441C120.199 267.885 120.111 268.398 120.111 268.981C120.111 269.883 120.319 270.607 120.735 271.153C121.151 271.694 121.764 271.965 122.574 271.965ZM127.657 272.735V265.241H128.573V267.045L128.393 266.809C128.476 266.587 128.585 266.384 128.719 266.199C128.853 266.009 128.999 265.854 129.156 265.734C129.35 265.562 129.577 265.433 129.836 265.345C130.095 265.253 130.356 265.199 130.62 265.185C130.884 265.167 131.124 265.185 131.342 265.241V266.199C131.069 266.129 130.77 266.113 130.447 266.15C130.123 266.187 129.824 266.316 129.551 266.539C129.302 266.733 129.114 266.966 128.989 267.239C128.865 267.508 128.781 267.794 128.74 268.1C128.698 268.4 128.677 268.699 128.677 268.995V272.735H127.657ZM138.802 272.943C138.112 272.943 137.529 272.77 137.053 272.423C136.576 272.071 136.216 271.597 135.971 271C135.725 270.399 135.603 269.726 135.603 268.981C135.603 268.222 135.725 267.547 135.971 266.955C136.22 266.358 136.586 265.889 137.067 265.546C137.548 265.204 138.14 265.033 138.843 265.033C139.528 265.033 140.115 265.206 140.606 265.553C141.096 265.9 141.471 266.372 141.73 266.969C141.993 267.565 142.125 268.236 142.125 268.981C142.125 269.73 141.993 270.403 141.73 271C141.466 271.597 141.087 272.071 140.592 272.423C140.097 272.77 139.5 272.943 138.802 272.943ZM135.429 272.735V262.743H136.456V267.094H136.345V272.735H135.429ZM138.697 271.992C139.22 271.992 139.655 271.861 140.002 271.597C140.349 271.333 140.608 270.975 140.779 270.521C140.955 270.063 141.043 269.55 141.043 268.981C141.043 268.417 140.957 267.908 140.786 267.454C140.615 267.001 140.354 266.643 140.002 266.379C139.655 266.115 139.213 265.983 138.677 265.983C138.154 265.983 137.719 266.111 137.372 266.365C137.03 266.619 136.773 266.973 136.602 267.427C136.431 267.875 136.345 268.394 136.345 268.981C136.345 269.559 136.431 270.077 136.602 270.535C136.773 270.989 137.032 271.345 137.379 271.604C137.726 271.863 138.165 271.992 138.697 271.992ZM145.793 272.943C145.229 272.943 144.754 272.841 144.371 272.638C143.991 272.434 143.707 272.164 143.517 271.826C143.327 271.488 143.233 271.12 143.233 270.723C143.233 270.316 143.314 269.969 143.475 269.682C143.642 269.39 143.866 269.152 144.149 268.967C144.435 268.782 144.766 268.641 145.141 268.544C145.52 268.451 145.939 268.37 146.397 268.301C146.859 268.227 147.31 268.165 147.75 268.114C148.194 268.058 148.582 268.005 148.915 267.954L148.555 268.176C148.569 267.436 148.425 266.888 148.124 266.532C147.824 266.175 147.301 265.997 146.556 265.997C146.043 265.997 145.608 266.113 145.252 266.344C144.9 266.576 144.653 266.941 144.509 267.441L143.517 267.149C143.688 266.478 144.033 265.958 144.551 265.588C145.069 265.218 145.742 265.033 146.57 265.033C147.255 265.033 147.835 265.162 148.312 265.421C148.793 265.676 149.133 266.046 149.332 266.532C149.424 266.749 149.484 266.992 149.512 267.26C149.54 267.528 149.554 267.801 149.554 268.079V272.735H148.645V270.854L148.909 270.965C148.654 271.608 148.259 272.099 147.722 272.436C147.185 272.774 146.542 272.943 145.793 272.943ZM145.911 272.062C146.387 272.062 146.804 271.976 147.16 271.805C147.516 271.634 147.803 271.4 148.02 271.104C148.238 270.804 148.379 270.466 148.444 270.091C148.499 269.851 148.529 269.587 148.534 269.3C148.538 269.009 148.541 268.791 148.541 268.648L148.929 268.849C148.582 268.895 148.205 268.942 147.798 268.988C147.396 269.034 146.998 269.087 146.605 269.148C146.216 269.208 145.865 269.279 145.55 269.363C145.337 269.423 145.132 269.508 144.933 269.619C144.734 269.726 144.569 269.869 144.44 270.05C144.315 270.23 144.253 270.454 144.253 270.723C144.253 270.94 144.306 271.151 144.412 271.354C144.523 271.558 144.699 271.726 144.94 271.861C145.185 271.995 145.509 272.062 145.911 272.062ZM156.772 272.735V268.912C156.772 268.495 156.733 268.114 156.654 267.767C156.576 267.415 156.449 267.11 156.273 266.851C156.102 266.587 155.877 266.384 155.6 266.24C155.327 266.097 154.994 266.025 154.601 266.025C154.24 266.025 153.921 266.088 153.643 266.212C153.37 266.337 153.139 266.518 152.949 266.754C152.764 266.985 152.623 267.267 152.526 267.6C152.429 267.933 152.38 268.313 152.38 268.738L151.659 268.579C151.659 267.811 151.793 267.165 152.061 266.643C152.329 266.12 152.699 265.724 153.171 265.456C153.643 265.188 154.184 265.054 154.795 265.054C155.244 265.054 155.634 265.123 155.968 265.262C156.305 265.401 156.59 265.588 156.821 265.824C157.057 266.06 157.247 266.33 157.39 266.636C157.533 266.936 157.637 267.258 157.702 267.6C157.767 267.938 157.799 268.276 157.799 268.613V272.735H156.772ZM151.353 272.735V265.241H152.276V267.087H152.38V272.735H151.353ZM162.453 272.943C161.755 272.943 161.158 272.77 160.663 272.423C160.168 272.071 159.789 271.597 159.525 271C159.261 270.403 159.129 269.73 159.129 268.981C159.129 268.236 159.259 267.565 159.518 266.969C159.782 266.372 160.159 265.9 160.649 265.553C161.139 265.206 161.727 265.033 162.411 265.033C163.115 265.033 163.707 265.204 164.188 265.546C164.669 265.889 165.032 266.358 165.277 266.955C165.527 267.547 165.652 268.222 165.652 268.981C165.652 269.726 165.529 270.399 165.284 271C165.039 271.597 164.678 272.071 164.202 272.423C163.725 272.77 163.142 272.943 162.453 272.943ZM162.557 271.992C163.089 271.992 163.529 271.863 163.876 271.604C164.222 271.345 164.482 270.989 164.653 270.535C164.824 270.077 164.909 269.559 164.909 268.981C164.909 268.394 164.824 267.875 164.653 267.427C164.482 266.973 164.222 266.619 163.876 266.365C163.533 266.111 163.101 265.983 162.578 265.983C162.041 265.983 161.597 266.115 161.246 266.379C160.894 266.643 160.633 267.001 160.462 267.454C160.295 267.908 160.212 268.417 160.212 268.981C160.212 269.55 160.297 270.063 160.469 270.521C160.644 270.975 160.906 271.333 161.253 271.597C161.6 271.861 162.034 271.992 162.557 271.992ZM164.909 272.735V267.094H164.798V262.743H165.825V272.735H164.909ZM169.368 272.735L167.078 265.234L168.098 265.241L169.874 271.063L171.658 265.241H172.588L174.371 271.063L176.161 265.241H177.174L174.884 272.735H173.996L172.123 266.768L170.256 272.735H169.368ZM178.563 263.819V262.674H179.583V263.819H178.563ZM178.563 272.735V265.241H179.583V272.735H178.563ZM184.57 272.943C183.872 272.943 183.275 272.77 182.78 272.423C182.285 272.071 181.906 271.597 181.642 271C181.379 270.403 181.247 269.73 181.247 268.981C181.247 268.236 181.376 267.565 181.635 266.969C181.899 266.372 182.276 265.9 182.766 265.553C183.257 265.206 183.844 265.033 184.529 265.033C185.232 265.033 185.824 265.204 186.305 265.546C186.786 265.889 187.149 266.358 187.395 266.955C187.644 267.547 187.769 268.222 187.769 268.981C187.769 269.726 187.647 270.399 187.401 271C187.156 271.597 186.795 272.071 186.319 272.423C185.843 272.77 185.26 272.943 184.57 272.943ZM184.675 271.992C185.207 271.992 185.646 271.863 185.993 271.604C186.34 271.345 186.599 270.989 186.77 270.535C186.941 270.077 187.027 269.559 187.027 268.981C187.027 268.394 186.941 267.875 186.77 267.427C186.599 266.973 186.34 266.619 185.993 266.365C185.651 266.111 185.218 265.983 184.695 265.983C184.159 265.983 183.715 266.115 183.363 266.379C183.012 266.643 182.75 267.001 182.579 267.454C182.412 267.908 182.329 268.417 182.329 268.981C182.329 269.55 182.415 270.063 182.586 270.521C182.762 270.975 183.023 271.333 183.37 271.597C183.717 271.861 184.152 271.992 184.675 271.992ZM187.027 272.735V267.094H186.916V262.743H187.943V272.735H187.027ZM193.969 272.735C193.548 272.823 193.132 272.857 192.72 272.839C192.313 272.82 191.948 272.733 191.624 272.575C191.305 272.418 191.062 272.173 190.895 271.84C190.761 271.562 190.687 271.282 190.673 271C190.664 270.713 190.66 270.387 190.66 270.022V263.159H191.673V269.98C191.673 270.295 191.675 270.558 191.68 270.771C191.689 270.979 191.737 271.164 191.825 271.326C191.992 271.636 192.255 271.821 192.616 271.881C192.982 271.942 193.433 271.928 193.969 271.84V272.735ZM189.057 266.115V265.241H193.969V266.115H189.057ZM200.858 272.735V268.912C200.858 268.495 200.819 268.114 200.74 267.767C200.661 267.415 200.534 267.11 200.358 266.851C200.187 266.587 199.963 266.384 199.685 266.24C199.412 266.097 199.079 266.025 198.686 266.025C198.325 266.025 198.006 266.088 197.729 266.212C197.456 266.337 197.224 266.518 197.035 266.754C196.85 266.985 196.709 267.267 196.612 267.6C196.514 267.933 196.466 268.313 196.466 268.738L195.744 268.579C195.744 267.811 195.878 267.165 196.147 266.643C196.415 266.12 196.785 265.724 197.257 265.456C197.729 265.188 198.27 265.054 198.88 265.054C199.329 265.054 199.72 265.123 200.053 265.262C200.391 265.401 200.675 265.588 200.907 265.824C201.143 266.06 201.332 266.33 201.476 266.636C201.619 266.936 201.723 267.258 201.788 267.6C201.853 267.938 201.885 268.276 201.885 268.613V272.735H200.858ZM195.439 272.735V262.743H196.362V268.384H196.466V272.735H195.439Z" fill="black"/>
<ellipse cx="26.2751" cy="268.63" rx="2.485" ry="2.47813" fill="#69E6A6"/>
<path d="M40.3688 308.621C39.8739 308.621 39.4182 308.533 39.0019 308.357C38.5856 308.181 38.2271 307.932 37.9264 307.608C37.6257 307.279 37.406 306.889 37.2672 306.435L38.2386 306.144C38.4052 306.639 38.6781 307.013 39.0574 307.268C39.4413 307.522 39.8739 307.645 40.355 307.636C40.799 307.626 41.1807 307.527 41.4999 307.337C41.8237 307.148 42.0711 306.884 42.2423 306.546C42.4135 306.209 42.499 305.818 42.499 305.374C42.499 304.694 42.3001 304.148 41.9023 303.736C41.5091 303.32 40.9887 303.112 40.3411 303.112C40.1607 303.112 39.971 303.137 39.7721 303.188C39.5732 303.234 39.3882 303.301 39.217 303.389L38.7035 302.577L42.5892 298.99L42.7558 299.406H37.6627V298.428H43.4358V299.42L40.0496 302.654L40.0358 302.251C40.7296 302.163 41.3403 302.242 41.8676 302.487C42.395 302.732 42.8067 303.107 43.1027 303.611C43.4034 304.111 43.5537 304.698 43.5537 305.374C43.5537 306.012 43.415 306.576 43.1374 307.067C42.8645 307.552 42.4875 307.934 42.0064 308.212C41.5253 308.484 40.9794 308.621 40.3688 308.621ZM48.3031 308.628C47.785 308.628 47.3062 308.521 46.8668 308.309C46.4273 308.096 46.0526 307.802 45.7427 307.427C45.4328 307.053 45.2107 306.623 45.0766 306.137L46.0549 305.873C46.1428 306.234 46.3024 306.546 46.5337 306.81C46.765 307.069 47.0356 307.27 47.3456 307.414C47.6601 307.557 47.9885 307.629 48.3309 307.629C48.7749 307.629 49.1728 307.522 49.5243 307.309C49.8805 307.092 50.1627 306.805 50.3709 306.449C50.579 306.093 50.6831 305.702 50.6831 305.276C50.6831 304.837 50.5744 304.441 50.357 304.09C50.1396 303.734 49.8528 303.452 49.4966 303.243C49.1404 303.035 48.7518 302.931 48.3309 302.931C47.859 302.931 47.4519 303.035 47.1096 303.243C46.7673 303.447 46.4944 303.704 46.2909 304.014L45.3611 303.625L45.6664 298.428H51.0023V299.406H46.1174L46.6239 298.927L46.3533 303.361L46.0966 303.021C46.3834 302.693 46.7303 302.436 47.1374 302.251C47.5445 302.066 47.9724 301.974 48.4211 301.974C49.0363 301.974 49.5914 302.122 50.0864 302.418C50.5813 302.709 50.9745 303.105 51.266 303.604C51.5574 304.104 51.7031 304.661 51.7031 305.276C51.7031 305.887 51.5481 306.447 51.2382 306.956C50.9283 307.46 50.5166 307.865 50.0031 308.17C49.4896 308.475 48.923 308.628 48.3031 308.628ZM54.335 308.42L53.6411 307.726L62.9599 298.428L63.6537 299.115L54.335 308.42ZM61.5721 308.628C61.1141 308.628 60.6955 308.517 60.3162 308.295C59.9415 308.068 59.6408 307.767 59.4141 307.393C59.1875 307.013 59.0741 306.592 59.0741 306.13C59.0741 305.677 59.1898 305.26 59.4211 304.881C59.6524 304.502 59.9577 304.199 60.337 303.972C60.7163 303.745 61.128 303.632 61.5721 303.632C62.0301 303.632 62.4487 303.745 62.828 303.972C63.2073 304.194 63.508 304.495 63.7301 304.874C63.9567 305.249 64.0701 305.667 64.0701 306.13C64.0701 306.592 63.9567 307.013 63.7301 307.393C63.508 307.767 63.2073 308.068 62.828 308.295C62.4487 308.517 62.0301 308.628 61.5721 308.628ZM61.5721 307.705C61.8543 307.705 62.1156 307.633 62.3562 307.49C62.5967 307.346 62.7887 307.157 62.9321 306.921C63.0755 306.68 63.1472 306.417 63.1472 306.13C63.1472 305.843 63.0755 305.582 62.9321 305.346C62.7887 305.105 62.5967 304.913 62.3562 304.77C62.1156 304.626 61.8543 304.555 61.5721 304.555C61.2853 304.555 61.0216 304.626 60.7811 304.77C60.5452 304.913 60.3532 305.105 60.2052 305.346C60.0618 305.582 59.9901 305.843 59.9901 306.13C59.9901 306.417 60.0618 306.68 60.2052 306.921C60.3532 307.157 60.5452 307.346 60.7811 307.49C61.0216 307.633 61.2853 307.705 61.5721 307.705ZM55.7227 303.216C55.2648 303.216 54.8461 303.105 54.4668 302.883C54.0875 302.656 53.7845 302.355 53.5578 301.98C53.3358 301.601 53.2248 301.18 53.2248 300.718C53.2248 300.264 53.3404 299.848 53.5717 299.469C53.803 299.089 54.1083 298.786 54.4876 298.56C54.8669 298.333 55.2786 298.22 55.7227 298.22C56.1807 298.22 56.597 298.333 56.9717 298.56C57.351 298.782 57.654 299.082 57.8807 299.462C58.1073 299.836 58.2207 300.255 58.2207 300.718C58.2207 301.18 58.1073 301.601 57.8807 301.98C57.654 302.355 57.351 302.656 56.9717 302.883C56.597 303.105 56.1807 303.216 55.7227 303.216ZM55.7227 302.293C56.0095 302.293 56.2709 302.221 56.5068 302.078C56.7473 301.934 56.9393 301.745 57.0827 301.509C57.2261 301.268 57.2978 301.004 57.2978 300.718C57.2978 300.431 57.2261 300.169 57.0827 299.934C56.9393 299.693 56.7473 299.501 56.5068 299.358C56.2709 299.214 56.0095 299.143 55.7227 299.143C55.4359 299.143 55.1722 299.214 54.9317 299.358C54.6958 299.501 54.5061 299.693 54.3627 299.934C54.2193 300.169 54.1476 300.431 54.1476 300.718C54.1476 301.004 54.2193 301.268 54.3627 301.509C54.5061 301.745 54.6958 301.934 54.9317 302.078C55.1722 302.221 55.4359 302.293 55.7227 302.293ZM68.5117 304.485V303.611H72.675V304.485H68.5117ZM79.3406 308.42L82.7822 298.428H84.1353L87.5769 308.42H86.5153L83.2471 298.997H83.6495L80.4022 308.42H79.3406ZM80.874 305.998V305.04H86.0365V305.998H80.874ZM91.3556 298.428L88.6911 308.42H89.7389L92.4034 298.428H91.3556ZM94.2101 308.42V298.428H98.0681C98.6278 298.428 99.1159 298.543 99.5322 298.775C99.9485 299.006 100.272 299.318 100.504 299.712C100.735 300.1 100.851 300.53 100.851 301.002C100.851 301.539 100.707 302.018 100.42 302.438C100.134 302.855 99.7496 303.144 99.2685 303.306L99.2546 302.966C99.9023 303.151 100.411 303.475 100.781 303.937C101.151 304.4 101.336 304.96 101.336 305.616C101.336 306.195 101.214 306.694 100.969 307.115C100.723 307.532 100.379 307.853 99.9346 308.08C99.4906 308.306 98.9748 308.42 98.3873 308.42H94.2101ZM95.2371 307.441H98.1375C98.5446 307.441 98.91 307.37 99.2338 307.226C99.5576 307.078 99.8121 306.87 99.9971 306.602C100.187 306.333 100.282 306.01 100.282 305.63C100.282 305.26 100.196 304.927 100.025 304.631C99.8537 304.335 99.6201 304.099 99.324 303.923C99.0326 303.743 98.6995 303.653 98.3248 303.653H95.2371V307.441ZM95.2371 302.688H98.0612C98.3804 302.688 98.6718 302.617 98.9355 302.473C99.1991 302.325 99.4073 302.124 99.5599 301.869C99.7172 301.615 99.7959 301.321 99.7959 300.988C99.7959 300.516 99.6316 300.132 99.3032 299.836C98.9794 299.54 98.5654 299.392 98.0612 299.392H95.2371V302.688ZM109.579 308.42C109.158 308.508 108.742 308.542 108.33 308.524C107.923 308.505 107.558 308.417 107.234 308.26C106.915 308.103 106.672 307.858 106.505 307.525C106.371 307.247 106.297 306.967 106.283 306.685C106.274 306.398 106.269 306.072 106.269 305.707V298.844H107.282V305.665C107.282 305.98 107.285 306.243 107.289 306.456C107.299 306.664 107.347 306.849 107.435 307.011C107.602 307.321 107.865 307.506 108.226 307.566C108.592 307.626 109.043 307.612 109.579 307.525V308.42ZM104.667 301.8V300.926H109.579V301.8H104.667ZM113.956 308.628C113.225 308.628 112.591 308.466 112.054 308.142C111.522 307.818 111.108 307.363 110.812 306.775C110.516 306.188 110.368 305.498 110.368 304.707C110.368 303.889 110.514 303.181 110.805 302.584C111.097 301.987 111.506 301.527 112.034 301.203C112.566 300.88 113.192 300.718 113.914 300.718C114.654 300.718 115.286 300.889 115.808 301.231C116.331 301.569 116.727 302.055 116.995 302.688C117.263 303.322 117.386 304.078 117.363 304.957H116.322V304.596C116.303 303.625 116.093 302.892 115.69 302.397C115.292 301.902 114.71 301.654 113.942 301.654C113.137 301.654 112.519 301.916 112.089 302.438C111.664 302.961 111.451 303.706 111.451 304.673C111.451 305.616 111.664 306.35 112.089 306.872C112.519 307.39 113.128 307.649 113.914 307.649C114.451 307.649 114.918 307.527 115.316 307.282C115.718 307.032 116.035 306.673 116.266 306.206L117.217 306.574C116.921 307.226 116.484 307.733 115.905 308.094C115.332 308.45 114.682 308.628 113.956 308.628ZM111.09 304.957V304.104H116.814V304.957H111.09ZM121.699 308.621C120.82 308.621 120.096 308.431 119.527 308.052C118.963 307.673 118.616 307.145 118.486 306.47L119.527 306.296C119.638 306.722 119.89 307.062 120.283 307.316C120.681 307.566 121.171 307.691 121.754 307.691C122.323 307.691 122.772 307.573 123.1 307.337C123.429 307.097 123.593 306.771 123.593 306.359C123.593 306.128 123.54 305.94 123.433 305.797C123.332 305.649 123.121 305.512 122.802 305.387C122.483 305.263 122.006 305.115 121.373 304.943C120.693 304.758 120.161 304.573 119.777 304.388C119.393 304.203 119.12 303.99 118.958 303.75C118.796 303.505 118.715 303.206 118.715 302.855C118.715 302.429 118.835 302.057 119.076 301.738C119.316 301.414 119.65 301.164 120.075 300.988C120.501 300.808 120.996 300.718 121.56 300.718C122.124 300.718 122.629 300.81 123.073 300.995C123.521 301.176 123.882 301.43 124.155 301.758C124.428 302.087 124.59 302.469 124.641 302.903L123.6 303.091C123.531 302.651 123.311 302.304 122.941 302.05C122.575 301.791 122.11 301.657 121.546 301.647C121.014 301.634 120.582 301.735 120.249 301.953C119.915 302.166 119.749 302.45 119.749 302.806C119.749 303.005 119.809 303.176 119.929 303.32C120.05 303.458 120.267 303.59 120.582 303.715C120.901 303.84 121.354 303.977 121.942 304.125C122.631 304.3 123.172 304.485 123.565 304.68C123.958 304.874 124.238 305.103 124.405 305.367C124.571 305.63 124.655 305.956 124.655 306.345C124.655 307.053 124.391 307.61 123.864 308.017C123.341 308.42 122.619 308.621 121.699 308.621ZM130.274 308.42C129.853 308.508 129.436 308.542 129.025 308.524C128.618 308.505 128.252 308.417 127.928 308.26C127.609 308.103 127.366 307.858 127.2 307.525C127.066 307.247 126.992 306.967 126.978 306.685C126.968 306.398 126.964 306.072 126.964 305.707V298.844H127.977V305.665C127.977 305.98 127.979 306.243 127.984 306.456C127.993 306.664 128.042 306.849 128.129 307.011C128.296 307.321 128.56 307.506 128.921 307.566C129.286 307.626 129.737 307.612 130.274 307.525V308.42ZM125.361 301.8V300.926H130.274V301.8H125.361ZM131.889 299.503V298.358H132.909V299.503H131.889ZM131.889 308.42V300.926H132.909V308.42H131.889ZM140.401 308.42V304.596C140.401 304.18 140.362 303.798 140.283 303.452C140.205 303.1 140.077 302.795 139.902 302.536C139.731 302.272 139.506 302.068 139.229 301.925C138.956 301.782 138.623 301.71 138.229 301.71C137.869 301.71 137.549 301.772 137.272 301.897C136.999 302.022 136.768 302.203 136.578 302.438C136.393 302.67 136.252 302.952 136.155 303.285C136.058 303.618 136.009 303.997 136.009 304.423L135.287 304.263C135.287 303.495 135.422 302.85 135.69 302.327C135.958 301.805 136.328 301.409 136.8 301.141C137.272 300.873 137.813 300.738 138.424 300.738C138.872 300.738 139.263 300.808 139.596 300.947C139.934 301.085 140.219 301.273 140.45 301.509C140.686 301.745 140.875 302.015 141.019 302.32C141.162 302.621 141.266 302.943 141.331 303.285C141.396 303.623 141.428 303.96 141.428 304.298V308.42H140.401ZM134.982 308.42V300.926H135.905V302.772H136.009V308.42H134.982ZM146.206 311.958C145.822 311.958 145.442 311.901 145.068 311.785C144.698 311.674 144.355 311.496 144.041 311.251C143.726 311.01 143.462 310.696 143.25 310.307L144.172 309.794C144.381 310.21 144.672 310.508 145.047 310.689C145.426 310.874 145.812 310.966 146.206 310.966C146.747 310.966 147.184 310.864 147.517 310.661C147.855 310.462 148.1 310.166 148.252 309.773C148.405 309.38 148.479 308.889 148.475 308.302V306.303H148.592V300.926H149.501V308.316C149.501 308.528 149.495 308.732 149.481 308.926C149.471 309.125 149.451 309.319 149.418 309.509C149.33 310.069 149.148 310.529 148.87 310.89C148.597 311.251 148.236 311.519 147.788 311.695C147.343 311.871 146.816 311.958 146.206 311.958ZM146.136 308.628C145.438 308.628 144.841 308.454 144.346 308.107C143.851 307.756 143.472 307.282 143.208 306.685C142.944 306.088 142.812 305.415 142.812 304.666C142.812 303.921 142.942 303.25 143.201 302.654C143.465 302.057 143.842 301.585 144.332 301.238C144.822 300.891 145.41 300.718 146.095 300.718C146.798 300.718 147.39 300.889 147.871 301.231C148.352 301.573 148.715 302.043 148.96 302.64C149.21 303.232 149.335 303.907 149.335 304.666C149.335 305.411 149.212 306.084 148.967 306.685C148.722 307.282 148.361 307.756 147.885 308.107C147.408 308.454 146.825 308.628 146.136 308.628ZM146.24 307.677C146.772 307.677 147.212 307.548 147.559 307.289C147.906 307.03 148.165 306.673 148.336 306.22C148.507 305.762 148.592 305.244 148.592 304.666C148.592 304.078 148.507 303.56 148.336 303.112C148.165 302.658 147.906 302.304 147.559 302.05C147.216 301.795 146.784 301.668 146.261 301.668C145.724 301.668 145.28 301.8 144.929 302.064C144.577 302.327 144.316 302.686 144.145 303.139C143.978 303.593 143.895 304.101 143.895 304.666C143.895 305.235 143.98 305.748 144.152 306.206C144.327 306.66 144.589 307.018 144.936 307.282C145.283 307.545 145.718 307.677 146.24 307.677Z" fill="black"/>
<ellipse cx="26.2751" cy="304.315" rx="2.485" ry="2.47813" fill="#C4C4C4"/>
</g>
<defs>
<clipPath id="clip0_56_699">
<rect width="173.469" height="173.469" fill="white" transform="translate(26.2682 23.79)"/>
</clipPath>
<clipPath id="clip1_56_699">
<rect width="179.417" height="95.1603" fill="white" transform="translate(23.7901 221.05)"/>
</clipPath>
</defs>
</svg>
